<svg width="100" height="100" viewBox="0 0 100 100" fill="none" xmlns="http://www.w3.org/2000/svg">
    <path
        d="M37.1587 61.6179C40.4989 61.6179 43.2176 60.4333 43.2176 56.6853C43.2176 52.8596 40.9455 51.3643 37.3335 51.3449H28.4004V61.6179H37.1587ZM36.11 36.45H28.4199V45.15H36.7121C39.6444 45.15 41.7223 43.8683 41.7223 40.7029C41.7223 37.2656 39.0618 36.45 36.11 36.45ZM61.2585 50.9759H73.3375C73.0074 47.3833 71.1431 45.2083 67.4145 45.2083C63.8607 45.2083 61.4915 47.4221 61.2585 50.9759ZM81.5714 6H19.4286C12.5734 6 7 11.5734 7 18.4286V80.5714C7 87.4266 12.5734 93 19.4286 93H81.5714C88.4266 93 94 87.4266 94 80.5714V18.4286C94 11.5734 88.4266 6 81.5714 6ZM74.8717 35.7121H59.7632V32.0417H74.8717V35.7121ZM44.6158 47.1114C49.1989 48.4125 51.4127 52.4518 51.4127 57.1319C51.4127 64.7056 45.0625 67.9487 38.285 67.9875H20.2054V30.7018H37.7801C44.1692 30.7018 49.7038 32.5078 49.7038 39.9261C49.7038 43.6741 47.956 45.519 44.6158 47.1114ZM67.667 39.6154C76.1145 39.6154 80.7946 46.2763 80.7946 54.2578C80.7946 54.5685 80.7752 54.8987 80.7558 55.2288C80.7558 55.3842 80.7364 55.5201 80.7364 55.656H61.2779C61.2779 59.9672 63.55 62.5112 67.9 62.5112C70.1527 62.5112 73.0462 61.3071 73.7647 58.9962H80.3092C78.2895 65.1911 74.1143 68.0846 67.667 68.0846C59.1612 68.0846 53.8596 62.317 53.8596 53.9083C53.8596 45.7909 59.433 39.6154 67.667 39.6154Z"
        fill="white" />
</svg>
    