<svg width="50" height="50" viewBox="0 0 100 100" fill="none" xmlns="http://www.w3.org/2000/svg">
    <path d="M94.9217 37.5195C94.4468 36.0638 93.5546 34.7797 92.3559 33.8268C91.1572 32.874 89.7049 32.2944 88.1795 32.1602L65.9139 30.2344L57.203 9.47656C56.6038 8.06494 55.6023 6.86089 54.3235 6.01448C53.0447 5.16807 51.5451 4.71674 50.0116 4.71674C48.478 4.71674 46.9784 5.16807 45.6996 6.01448C44.4208 6.86089 43.4194 8.06494 42.8202 9.47656L34.0975 30.2344L11.8319 32.1602C10.2982 32.2871 8.83627 32.8642 7.62939 33.819C6.42251 34.7738 5.52448 36.0638 5.048 37.527C4.57151 38.9903 4.53778 40.5617 4.95104 42.044C5.3643 43.5264 6.20615 44.8537 7.37095 45.8594L24.2928 60.625L19.2147 82.5938C18.8664 84.0897 18.9669 85.6551 19.5034 87.0943C20.04 88.5335 20.9888 89.7826 22.2314 90.6854C23.474 91.5883 24.9551 92.1048 26.4897 92.1705C28.0242 92.2362 29.5441 91.8481 30.8592 91.0547L49.9999 79.4297L69.1405 91.0547C70.4556 91.8468 71.975 92.2339 73.5088 92.1676C75.0426 92.1013 76.5229 91.5846 77.7648 90.682C79.0066 89.7793 79.955 88.5308 80.4915 87.0923C81.0279 85.6538 81.1287 84.0892 80.7811 82.5938L75.703 60.625L92.6249 45.8594C93.7866 44.85 94.6243 43.5201 95.0329 42.0364C95.4415 40.5527 95.4028 38.9813 94.9217 37.5195ZM68.8475 54.168C67.7762 55.1 66.9793 56.3064 66.5422 57.6574C66.1052 59.0085 66.0446 60.4531 66.367 61.8359L70.8163 81.1016L54.0428 70.9141C52.8247 70.1723 51.426 69.78 49.9999 69.78C48.5737 69.78 47.175 70.1723 45.9569 70.9141L29.1834 81.1016L33.6327 61.8359C33.9551 60.4531 33.8945 59.0085 33.4575 57.6574C33.0205 56.3064 32.2235 55.1 31.1522 54.168L16.2733 41.1875L35.8592 39.4922C37.2775 39.3707 38.6353 38.8626 39.7849 38.023C40.9344 37.1834 41.8316 36.0446 42.3788 34.7305L49.9999 16.5703L57.6209 34.7305C58.1681 36.0446 59.0653 37.1834 60.2149 38.023C61.3644 38.8626 62.7222 39.3707 64.1405 39.4922L83.7264 41.1875L68.8475 54.168Z" fill="white"/>
    </svg>
    