<svg width="50" height="50" viewBox="0 0 100 100" fill="none" xmlns="http://www.w3.org/2000/svg">
    <path d="M49.9998 91.6667C48.1943 91.6667 46.5623 91.2333 45.104 90.3667C43.6457 89.5 42.4998 88.3361 41.6665 86.875C39.3748 86.875 37.4137 86.0597 35.7832 84.4292C34.1526 82.7986 33.336 80.8361 33.3332 78.5417V63.75C29.236 61.0417 25.954 57.4653 23.4873 53.0208C21.0207 48.5764 19.7887 43.75 19.7915 38.5417C19.7915 30.1389 22.7262 23.0042 28.5957 17.1375C34.4651 11.2708 41.5998 8.33611 49.9998 8.33334C58.4026 8.33334 65.5387 11.2681 71.4082 17.1375C77.2776 23.0069 80.211 30.1417 80.2082 38.5417C80.2082 43.8889 78.9748 48.75 76.5082 53.125C74.0415 57.5 70.761 61.0417 66.6665 63.75V78.5417C66.6665 80.8333 65.8512 82.7958 64.2207 84.4292C62.5901 86.0625 60.6276 86.8778 58.3332 86.875C57.4998 88.3333 56.354 89.4972 54.8957 90.3667C53.4373 91.2361 51.8054 91.6694 49.9998 91.6667ZM41.6665 78.5417H58.3332V74.7917H41.6665V78.5417ZM41.6665 70.625H58.3332V66.6667H41.6665V70.625ZM40.8332 58.3333H46.8748V47.0833L37.7082 37.9167L42.0832 33.5417L49.9998 41.4583L57.9165 33.5417L62.2915 37.9167L53.1248 47.0833V58.3333H59.1665C62.9165 56.5278 65.9721 53.8722 68.3332 50.3667C70.6943 46.8611 71.8748 42.9194 71.8748 38.5417C71.8748 32.4306 69.7568 27.2569 65.5207 23.0208C61.2846 18.7847 56.111 16.6667 49.9998 16.6667C43.8887 16.6667 38.7151 18.7847 34.479 23.0208C30.2429 27.2569 28.1248 32.4306 28.1248 38.5417C28.1248 42.9167 29.3054 46.8583 31.6665 50.3667C34.0276 53.875 37.0832 56.5306 40.8332 58.3333Z" fill="white"/>
    </svg>
    