<svg width="100" height="100" viewBox="0 0 100 100" fill="none" xmlns="http://www.w3.org/2000/svg">
    <path
        d="M94 18.4286C94 11.5734 88.4266 6 81.5714 6H19.4286C12.5734 6 7 11.5734 7 18.4286V80.5714C7 87.4266 12.5734 93 19.4286 93H81.5714C88.4266 93 94 87.4266 94 80.5714V18.4286ZM58.6174 78.9596C58.6174 78.61 58.6174 77.7944 58.6368 76.7069C58.6562 74.4931 58.6563 71.1141 58.6563 68.2205C58.6563 65.1911 57.6464 63.2685 56.4618 62.2587C63.6471 61.4625 71.2208 60.4721 71.2208 48.0629C71.2208 44.5286 69.9585 42.7614 67.9 40.4893C68.2301 39.6542 69.3371 36.217 67.5699 31.7504C64.8705 30.9154 58.6951 35.2266 58.6951 35.2266C56.1317 34.508 53.3547 34.1391 50.6165 34.1391C47.8784 34.1391 45.1013 34.508 42.5379 35.2266C42.5379 35.2266 36.3625 30.9154 33.6632 31.7504C31.896 36.1975 32.9835 39.6348 33.333 40.4893C31.2746 42.7614 30.3036 44.5286 30.3036 48.0629C30.3036 60.4138 37.5471 61.4625 44.7324 62.2587C43.8002 63.0938 42.9652 64.5308 42.6739 66.5893C40.829 67.4243 36.11 68.8614 33.2942 63.89C31.527 60.8217 28.3422 60.5692 28.3422 60.5692C25.1962 60.5304 28.1286 62.55 28.1286 62.55C30.2259 63.521 31.7018 67.2496 31.7018 67.2496C33.5855 73.0172 42.5962 71.0752 42.5962 71.0752C42.5962 72.823 42.6156 75.2893 42.6156 77.0176C42.6156 77.9498 42.635 78.6877 42.635 78.9596C42.635 79.7946 42.0525 80.8045 40.4018 80.5132C27.5848 76.2214 18.6129 64.0259 18.6129 49.7719C18.6129 31.9446 32.2455 18.4092 50.0728 18.4092C67.9 18.4092 82.3482 31.9446 82.3482 49.7719C82.3676 64.0259 73.6676 76.2409 60.8507 80.5132C59.2194 80.8045 58.6174 79.7946 58.6174 78.9596ZM41.0426 68.3176C41.0038 68.0263 41.2563 67.7739 41.6252 67.6962C41.9942 67.6574 42.3438 67.8127 42.3826 68.0652C42.4408 68.3176 42.1884 68.5701 41.8 68.6478C41.431 68.7254 41.0815 68.5701 41.0426 68.3176ZM39.2754 68.9391C38.8482 68.9779 38.5569 68.7643 38.5569 68.473C38.5569 68.2205 38.8482 68.0069 39.2366 68.0069C39.6056 67.9681 39.9551 68.1817 39.9551 68.473C39.9551 68.7255 39.6638 68.9391 39.2754 68.9391ZM36.4984 68.5118C36.1295 68.4342 35.877 68.1429 35.9547 67.8904C36.0324 67.638 36.4208 67.5214 36.7509 67.5991C37.1393 67.7156 37.3917 68.0069 37.2946 68.2594C37.217 68.5118 36.8286 68.6283 36.4984 68.5118ZM34.071 67.0942C33.7797 66.8417 33.702 66.4728 33.8962 66.298C34.071 66.0844 34.44 66.1232 34.7313 66.4145C34.9837 66.667 35.0808 67.0554 34.906 67.2107C34.7313 67.4243 34.3623 67.3855 34.071 67.0942ZM32.4203 65.1522C32.2067 64.8609 32.2067 64.5308 32.4203 64.3949C32.6339 64.2201 32.9641 64.356 33.1388 64.6473C33.3525 64.9386 33.3525 65.2882 33.1388 65.4435C32.9641 65.56 32.6339 65.4435 32.4203 65.1522ZM31.1969 63.4433C30.9833 63.1908 30.9444 62.8996 31.1192 62.7636C31.294 62.5888 31.5853 62.6859 31.7989 62.8801C32.0125 63.1326 32.0513 63.4239 31.8766 63.5598C31.7018 63.7346 31.4105 63.6375 31.1969 63.4433ZM30.0317 62.2004C29.7792 62.0839 29.6627 61.8703 29.7404 61.6955C29.8181 61.579 30.0317 61.5208 30.2842 61.6179C30.5366 61.7538 30.6531 61.9674 30.5754 62.1228C30.4978 62.2975 30.2453 62.3364 30.0317 62.2004Z"
        fill="white" />
</svg>
    