<svg width="100" height="100" viewBox="0 0 100 100" fill="none" xmlns="http://www.w3.org/2000/svg">
    <path fill-rule="evenodd" clip-rule="evenodd" d="M24.2143 5.62143C19.2825 5.62143 14.5526 7.58009 11.0646 11.0667C7.57662 14.5533 5.61615 19.2825 5.61426 24.2143V73.8143C5.61426 78.7473 7.57389 83.4783 11.0621 86.9665C14.5502 90.4547 19.2812 92.4143 24.2143 92.4143H73.8143C78.746 92.4124 83.4752 90.4519 86.9618 86.9639C90.4485 83.476 92.4071 78.7461 92.4071 73.8143V24.2143C92.4052 19.2837 90.4457 14.5557 86.9593 11.0692C83.4729 7.58281 78.7448 5.62332 73.8143 5.62143H24.2143ZM79.1643 24.2429C79.1643 25.6637 78.5998 27.0263 77.5952 28.0309C76.5905 29.0356 75.2279 29.6 73.8071 29.6C72.3863 29.6 71.0237 29.0356 70.019 28.0309C69.0144 27.0263 68.45 25.6637 68.45 24.2429C68.45 22.8221 69.0144 21.4594 70.019 20.4548C71.0237 19.4501 72.3863 18.8857 73.8071 18.8857C75.2279 18.8857 76.5905 19.4501 77.5952 20.4548C78.5998 21.4594 79.1643 22.8221 79.1643 24.2429ZM49.0214 34.1571C45.081 34.1571 41.3021 35.7224 38.5158 38.5087C35.7296 41.295 34.1643 45.0739 34.1643 49.0143C34.1643 52.9546 35.7296 56.7336 38.5158 59.5199C41.3021 62.3061 45.081 63.8714 49.0214 63.8714C52.9618 63.8714 56.7407 62.3061 59.527 59.5199C62.3132 56.7336 63.8785 52.9546 63.8785 49.0143C63.8785 45.0739 62.3132 41.295 59.527 38.5087C56.7407 35.7224 52.9618 34.1571 49.0214 34.1571ZM27.0143 49.0143C27.0143 43.1795 29.3321 37.5837 33.4579 33.4579C37.5837 29.3321 43.1795 27.0143 49.0143 27.0143C54.849 27.0143 60.4448 29.3321 64.5706 33.4579C68.6964 37.5837 71.0143 43.1795 71.0143 49.0143C71.0143 54.849 68.6964 60.4448 64.5706 64.5706C60.4448 68.6964 54.849 71.0143 49.0143 71.0143C43.1795 71.0143 37.5837 68.6964 33.4579 64.5706C29.3321 60.4448 27.0143 54.849 27.0143 49.0143Z" fill="white"/>
    </svg>
    