<svg width="100" height="100" viewBox="0 0 100 100"
    xmlns="http://www.w3.org/2000/svg">
    <path
        fill="white"
        d="M24.0488 6C14.6733 6 7 13.6731 7 23.0488V75.954C7 85.3295 14.6731 93 24.0488 93H76.954C86.3296 93 94 85.3296 94 75.954V23.0488C94 13.6733 86.3296 6 76.954 6H24.0488ZM28.3368 20.3568C32.8321 20.3568 35.601 23.3079 35.6865 27.1871C35.6865 30.9806 32.8319 34.0147 28.2498 34.0147H28.1655C23.7557 34.0147 20.9055 30.9808 20.9055 27.1871C20.9055 23.3079 23.8419 20.3568 28.3367 20.3568H28.3368ZM67.0757 38.4876C75.7211 38.4876 82.202 44.1383 82.202 56.2814V78.9503H69.0633V57.8012C69.0633 52.4867 67.1618 48.8608 62.407 48.8608C58.7772 48.8608 56.6136 51.3047 55.6637 53.6655C55.3166 54.5101 55.2313 55.6898 55.2313 56.8713V78.9503H42.0927C42.0927 78.9503 42.2651 43.1243 42.0927 39.4148H55.234V45.0134C56.98 42.3196 60.1031 38.4876 67.0757 38.4876V38.4876ZM21.6804 39.4176H34.8191V78.9505H21.6804V39.4176Z"
    />
</svg>
    