<svg width="100" height="100" viewBox="0 0 100 100" fill="none" xmlns="http://www.w3.org/2000/svg">
    <path fill-rule="evenodd" clip-rule="evenodd"
        d="M7 17.3478C7 14.3382 7.98208 11.4518 9.73018 9.3237C11.4783 7.19557 13.8492 6 16.3214 6H84.6786C87.1508 6 89.5217 7.19557 91.2698 9.3237C93.0179 11.4518 94 14.3382 94 17.3478V19.9351L52.8801 53.3129C52.1623 53.8387 51.3376 54.1087 50.5 54.0921C49.6624 54.1087 48.8377 53.8387 48.1199 53.3129L7 19.9351V17.3478ZM7 31.2981V81.6522C7 84.6618 7.98208 87.5482 9.73018 89.6763C11.4783 91.8044 13.8492 93 16.3214 93H84.6786C87.1508 93 89.5217 91.8044 91.2698 89.6763C93.0179 87.5482 94 84.6618 94 81.6522V31.2981L57.1679 61.1958L57.1369 61.2261C55.1541 62.7611 52.8497 63.5675 50.5 63.5486C48.1696 63.5486 45.8206 62.777 43.8631 61.2261L43.8321 61.1958L7 31.2981Z"
        fill="white" />
</svg>
    