<svg width="50" height="50" viewBox="0 0 100 100" fill="none" xmlns="http://www.w3.org/2000/svg">
    <g clip-path="url(#clip0_178_67)">
    <path d="M50.0002 16.6667C61.6127 16.6667 71.9293 21.9042 79.2752 28.3875C82.9627 31.6417 86.0002 35.2958 88.1418 38.9333C90.246 42.5042 91.6668 46.375 91.6668 50C91.6668 53.625 90.2502 57.4958 88.1418 61.0667C86.0002 64.7042 82.9627 68.3583 79.2752 71.6125C71.9293 78.0958 61.6085 83.3333 50.0002 83.3333C38.3877 83.3333 28.071 78.0958 20.7252 71.6125C17.0377 68.3583 14.0002 64.7042 11.8585 61.0667C9.75016 57.4958 8.3335 53.625 8.3335 50C8.3335 46.375 9.75016 42.5042 11.8585 38.9333C14.0002 35.2958 17.0377 31.6417 20.7252 28.3875C28.071 21.9042 38.3918 16.6667 50.0002 16.6667ZM50.0002 25C40.9002 25 32.4668 29.1375 26.2418 34.6333C23.1418 37.3667 20.6918 40.3542 19.0377 43.1625C17.346 46.0375 16.6668 48.4167 16.6668 50C16.6668 51.5833 17.346 53.9625 19.0377 56.8375C20.6918 59.6458 23.1418 62.6292 26.2418 65.3667C32.4668 70.8625 40.9002 75 50.0002 75C59.1002 75 67.5335 70.8625 73.7585 65.3667C76.8585 62.6292 79.3085 59.6458 80.9627 56.8375C82.6543 53.9625 83.3335 51.5833 83.3335 50C83.3335 48.4167 82.6543 46.0375 80.9627 43.1625C79.3085 40.3542 76.8585 37.3708 73.7585 34.6333C67.5335 29.1375 59.1002 25 50.0002 25ZM50.0002 37.5C50.3668 37.5 50.7293 37.5167 51.0877 37.5458C50.183 39.1327 49.8248 40.9729 50.0682 42.7832C50.3116 44.5936 51.1431 46.2738 52.4347 47.5655C53.7263 48.8571 55.4066 49.6886 57.2169 49.9319C59.0273 50.1753 60.8674 49.8171 62.4543 48.9125C62.6734 51.4215 62.1295 53.9382 60.8938 56.1329C59.6581 58.3275 57.7883 60.0976 55.5294 61.2114C53.2704 62.3251 50.7277 62.7305 48.2344 62.3744C45.7411 62.0183 43.4136 60.9174 41.5567 59.2158C39.6998 57.5143 38.4003 55.2915 37.8283 52.8387C37.2564 50.3859 37.4387 47.8176 38.3514 45.4702C39.2641 43.1228 40.8646 41.1058 42.9432 39.6836C45.0218 38.2614 47.4816 37.5003 50.0002 37.5Z" fill="white"/>
    </g>
    <defs>
    <clipPath id="clip0_178_67">
    <rect width="100" height="100" fill="white"/>
    </clipPath>
    </defs>
    </svg>
    